<svg width="292" height="72" viewBox="0 0 292 72" fill="none" xmlns="http://www.w3.org/2000/svg" role="img" aria-labelledby="logo-title-light">
  <title id="logo-title-light">Perts Foundry</title>
  <!-- E11 Icon -->
  <rect width="72" height="72" rx="14" fill="#0A0A0A"/>
  <path d="M25 15 Q17 15 17 24 L17 30 Q17 36 12 36 Q17 36 17 42 L17 48 Q17 57 25 57" stroke="#FFFFFF" stroke-width="3" stroke-linecap="round" fill="none" opacity="0.9"/>
  <path d="M47 15 Q55 15 55 24 L55 30 Q55 36 60 36 Q55 36 55 42 L55 48 Q55 57 47 57" stroke="#FFFFFF" stroke-width="3" stroke-linecap="round" fill="none" opacity="0.9"/>
  <circle cx="36" cy="38" r="16" fill="#3B82F6" opacity="0.12"/>
  <circle cx="36" cy="38" r="12" fill="#7C3AED" opacity="0.2"/>
  <circle cx="36" cy="38" r="8" fill="#9333EA" opacity="0.35"/>
  <circle cx="36" cy="38" r="5.5" fill="url(#emberLight)" opacity="0.9"/>
  <circle cx="36" cy="38" r="2.5" fill="#FFFFFF" opacity="0.55"/>
  <!-- Text -->
  <text x="82" y="34" font-family="Trebuchet MS, Liberation Sans, DejaVu Sans, sans-serif" font-weight="900" font-size="31" fill="#000000" letter-spacing="3">PERTS</text>
  <text x="82" y="58" font-family="Trebuchet MS, Liberation Sans, DejaVu Sans, sans-serif" font-weight="800" font-size="19" fill="#2563EB" letter-spacing="6.5">FOUNDRY</text>
  <defs>
    <radialGradient id="emberLight" cx="36" cy="38" r="5.5" gradientUnits="userSpaceOnUse">
      <stop offset="0%" stop-color="#FFFFFF" stop-opacity="0.6"/>
      <stop offset="40%" stop-color="#EF4444"/>
      <stop offset="100%" stop-color="#DC2626"/>
    </radialGradient>
  </defs>
</svg>
