<svg xmlns="http://www.w3.org/2000/svg" viewBox="0 0 24 24" fill="currentColor"><path d="M7.64 11.3c0 .26.03.47.08.63.06.16.13.33.23.52.04.06.05.12.05.17 0 .07-.05.15-.14.22l-.47.31c-.07.05-.13.07-.19.07-.07 0-.15-.04-.22-.11a2.24 2.24 0 0 1-.26-.34 5.7 5.7 0 0 1-.22-.42c-.56.66-1.27.99-2.11.99-.6 0-1.08-.17-1.43-.52-.35-.34-.53-.8-.53-1.37 0-.6.21-1.1.64-1.46.43-.37 1-.55 1.73-.55.24 0 .49.02.75.06.26.04.53.1.81.17v-.52c0-.54-.11-.92-.34-1.14-.23-.22-.62-.33-1.18-.33-.25 0-.51.03-.78.09a5.76 5.76 0 0 0-.78.24c-.12.05-.2.08-.26.1a.46.46 0 0 1-.1.02c-.1 0-.14-.07-.14-.22v-.36c0-.11.01-.2.04-.25a.44.44 0 0 1 .17-.14c.25-.13.55-.24.9-.33.35-.09.72-.14 1.11-.14.85 0 1.47.19 1.87.57.4.38.6.96.6 1.73v2.28zm-2.92 1.09c.23 0 .47-.04.73-.13.25-.08.48-.24.67-.44.12-.13.2-.28.26-.45.05-.17.08-.38.08-.63v-.3a5.82 5.82 0 0 0-.65-.12 5.3 5.3 0 0 0-.66-.05c-.47 0-.82.09-1.05.29-.23.19-.35.47-.35.83 0 .33.09.58.26.75.18.17.43.25.71.25zm5.78.73c-.12 0-.21-.02-.27-.07-.06-.04-.11-.14-.16-.27l-1.76-5.79a1.16 1.16 0 0 1-.07-.29c0-.11.06-.18.17-.18h.72c.13 0 .22.02.27.07.06.05.1.14.15.27l1.26 4.96 1.17-4.96c.04-.14.09-.22.15-.27a.54.54 0 0 1 .28-.07h.59c.13 0 .22.02.28.07.06.05.11.14.15.27l1.18 5.02 1.3-5.02c.04-.14.09-.22.15-.27a.52.52 0 0 1 .27-.07h.68c.12 0 .18.06.18.18 0 .04-.01.07-.02.12a1.2 1.2 0 0 1-.05.18l-1.81 5.79c-.04.14-.1.23-.16.27-.06.05-.15.07-.27.07h-.63c-.13 0-.22-.02-.28-.07-.06-.05-.11-.14-.15-.28l-1.16-4.83-1.15 4.82c-.04.14-.09.23-.15.28-.06.05-.16.07-.28.07h-.64zm9.29.18c-.37 0-.74-.04-1.1-.13-.36-.09-.64-.18-.83-.29-.12-.07-.2-.14-.23-.22a.56.56 0 0 1-.04-.2v-.37c0-.15.06-.22.17-.22.04 0 .09.01.13.02.05.02.12.05.2.09.27.12.56.22.87.29.32.07.62.11.93.11.49 0 .87-.09 1.13-.26.26-.17.4-.42.4-.75 0-.22-.07-.4-.21-.54a1.97 1.97 0 0 0-.72-.42l-1.03-.32c-.52-.16-.9-.4-1.14-.72-.24-.31-.36-.66-.36-1.03 0-.3.06-.56.19-.79.13-.23.3-.43.52-.59.22-.16.47-.28.77-.36.29-.08.6-.12.93-.12.16 0 .33.01.5.03.18.03.34.06.5.1.15.04.3.09.43.14.13.05.23.11.3.16a.6.6 0 0 1 .16.16c.03.05.05.12.05.21v.35c0 .15-.06.22-.17.22a.83.83 0 0 1-.3-.1 3.6 3.6 0 0 0-1.51-.31c-.45 0-.8.07-1.04.22-.24.15-.37.38-.37.7 0 .22.08.41.23.56.16.15.44.3.85.43l1.01.32c.51.16.88.39 1.11.68.23.29.34.62.34 1 0 .3-.06.58-.19.82-.13.24-.3.44-.53.61-.23.17-.49.3-.81.38-.32.1-.67.14-1.04.14z"/><path d="M21.37 17.4c-2.54 1.87-6.22 2.87-9.39 2.87-4.44 0-8.44-1.64-11.47-4.37-.24-.21-.02-.5.26-.34 3.27 1.9 7.31 3.05 11.48 3.05 2.82 0 5.91-.58 8.76-1.79.43-.18.79.28.36.58z"/><path d="M22.4 16.22c-.32-.41-2.14-.2-2.96-.1-.25.03-.28-.19-.06-.34 1.45-1.02 3.83-.72 4.1-.38.28.34-.07 2.73-1.43 3.87-.21.17-.41.08-.32-.15.31-.77 1-.2.5 2.5-.67z"/></svg>
