<svg xmlns="http://www.w3.org/2000/svg" viewBox="0 0 24 24" fill="currentColor"><path d="M18.09 5.57c-.43-.07-1.07.05-1.49.22-.1-.43-.24-.81-.42-1.07-.44-.63-1.04-.93-1.7-.83-.26.04-.51.14-.75.28-.5-.72-1.07-1.27-1.79-1.37-.9-.12-1.61.46-2.14 1.3-.35.55-.62 1.23-.83 1.95l-.56-.05c-.74-.05-1.38.2-1.87.64-.49.44-.84 1.1-1.01 1.96-.14.72-.11 1.38.05 1.97-.56.42-1 .97-1.24 1.63-.39 1.06-.16 2.23.48 3.11.41.56.97.97 1.62 1.22-.03.53.08 1.07.33 1.57.5 1 1.51 1.6 2.61 1.72.52.06 1.06 0 1.56-.15.43.58 1 1.04 1.69 1.3 1.08.4 2.2.28 3.11-.24.58-.33 1.05-.82 1.38-1.39.5.1 1.03.1 1.54-.02 1.05-.26 1.87-.97 2.27-1.92.26-.63.33-1.31.21-1.99.48-.46.82-1.06.96-1.75.22-1.08-.05-2.14-.67-2.95.15-.59.15-1.21-.01-1.83-.26-1.02-.94-1.78-1.84-2.16-.35-.15-.73-.23-1.1-.23l-.36.02-.02-.03zm-2.8 2.83c.31-.17.83-.26 1.14.11.38.46.16 1.12-.14 1.5l-.21-.08c-.28-.12-.5-.27-.68-.48-.19-.22-.33-.5-.36-.69-.03-.18.03-.25.25-.36zm-5.67.33c.08-.01.17.02.29.08.2.1.38.31.5.58.07.15.19.34.32.55-.41.15-.78.36-1.05.55-.37-.47-.46-1.11-.22-1.48.08-.13.16-.28.16-.28zm7.63 6.53c-.31.62-.71 1.01-1.35 1.2-.33.1-.77.13-1.21-.01.01-.03.03-.05.04-.08.16-.33.22-.72.18-1.14-.06-.62-.32-1.2-.66-1.62l.22-.07c.65-.18 1.27-.13 1.73.16.47.29.8.76 1.05 1.56zm-3.98-.27c.3.38.5.86.54 1.34.04.44-.04.84-.24 1.14-.18.29-.5.46-.9.48-.42.02-.82-.12-1.1-.36-.29-.25-.47-.6-.55-1.02-.08-.43 0-.84.24-1.19.24-.36.62-.58 1.06-.62.38-.03.73.06.95.23z"/></svg>
