<svg xmlns="http://www.w3.org/2000/svg" viewBox="0 0 24 24" fill="currentColor"><path d="M15.65 8.35h1.2l3.4-3.4.17-1.44A10.94 10.94 0 0 0 12.05 1C7.05 1 2.84 4.07 1.38 8.44l1.22.15 3.4-.56s.17-.29.26-.28a6.13 6.13 0 0 1 8.66-.4l.73 1z"/><path d="m19.87 8.26-.44-.14a7.04 7.04 0 0 1-2.05 2.53l.05.01-2.57 2.57c.06.31.1.63.1.97a4.08 4.08 0 0 1-4.09 4.09l-2.86 2.86A10.87 10.87 0 0 0 12.05 23c4.57 0 8.56-2.8 10.2-6.78l-2.38-7.96z"/><path d="M7.71 18.63a4.08 4.08 0 0 1-1.63-5.52l-2.99-2.32a7.47 7.47 0 0 0-.77 3.39A7.64 7.64 0 0 0 4.87 19l2.84-2.84v2.47z"/><circle cx="10.87" cy="14.19" r="2.57"/></svg>
