<svg xmlns="http://www.w3.org/2000/svg" viewBox="0 0 24 24" fill="currentColor"><path d="M12 1.5c-.4 0-.8.1-1.1.3L3.6 6c-.7.4-1.1 1.1-1.1 1.9v8.2c0 .8.4 1.5 1.1 1.9l7.3 4.2c.7.4 1.5.4 2.2 0l7.3-4.2c.7-.4 1.1-1.1 1.1-1.9V7.9c0-.8-.4-1.5-1.1-1.9l-7.3-4.2c-.3-.2-.7-.3-1.1-.3zm0 3.4l.3.9.9.3-.9.3-.3.9-.3-.9-.9-.3.9-.3.3-.9zm-3.1 2.4l1 .1.5.8-.5.9-1 .1-.5-.9.5-.9zm6.2 0l.5.9-.5.9-1-.1-.5-.9.5-.8 1-.1zM12 8.6c.5 0 1 .2 1.3.5l.1.1 1.5-.3-.5 1.4.1.1c.2.4.3.9.3 1.4v.2l1.3.7-.9 1.2h-.2c-.4.3-.9.5-1.4.6l-.1.1-.1 1.5H12h-1.3l-.1-1.5-.1-.1c-.5-.1-1-.3-1.4-.6h-.2l-.9-1.2 1.3-.7V12c0-.5.1-1 .3-1.4l.1-.1-.5-1.4 1.5.3.1-.1c.4-.4.8-.5 1.3-.5zm0 2a1.4 1.4 0 1 0 0 2.8 1.4 1.4 0 0 0 0-2.8z"/></svg>
